# xmcd
# 
# Track frame offsets:
#     180
#     20800
#     39775
#     59160
#     83925
#     104610
#     125175
#     141860
#     161160
#     180785
#     201110
#     222700
# 
# Disc length: 3362
# 
# Revision: 8
# Processed by: cddbd v1.5.2PL0 Copyright (c) Steve Scherf et al.
# Submitted via: fre:ac v1.0.31
# 
DISCID=b80d200c
DTITLE=Ketama - De akí a Ketama
DYEAR=1995
DGENRE=World
TTITLE0=No estamos lokos (Kalikeño)
TTITLE1=Verdadero
TTITLE2=Se dejaba llevar por ti
TTITLE3=Loko
TTITLE4=Flor de lis
TTITLE5=La cuesta La Cava (Ketama)
TTITLE6=Acaba de nacer
TTITLE7=Djamana Djana
TTITLE8=Problema
TTITLE9=Vengo de borrachera
TTITLE10=Vente pa' Madrid
TTITLE11=Bulería del olivar
EXTD=YEAR: 1995
EXTT0=
EXTT1=
EXTT2=
EXTT3=
EXTT4=
EXTT5=
EXTT6=
EXTT7=
EXTT8=
EXTT9=
EXTT10=
EXTT11=
PLAYORDER=
